name C:\Users\Nicos\Documents\OpenSimProjects\SprintingProject\Study1\PredictiveResults\IC_pred_Sprinting_optimum_26-October-2023__10-52-28___Nominal_p02_maxVel_01.mot
datacolumns 38
datarows 8
range 0.10871127 0.11500623
endheader
                time	/jointset/ground_pelvis/pelvis_tilt/value	/jointset/ground_pelvis/pelvis_list/value	/jointset/ground_pelvis/pelvis_rotation/value	/jointset/ground_pelvis/pelvis_tx/value	/jointset/ground_pelvis/pelvis_ty/value	/jointset/ground_pelvis/pelvis_tz/value	/jointset/hip_r/hip_flexion_r/value	/jointset/hip_r/hip_adduction_r/value	/jointset/hip_r/hip_rotation_r/value	/jointset/knee_r/knee_angle_r/value	/jointset/ankle_r/ankle_angle_r/value	/jointset/subtalar_r/subtalar_angle_r/value	/jointset/mtp_r/mtp_angle_r/value	/jointset/hip_l/hip_flexion_l/value	/jointset/hip_l/hip_adduction_l/value	/jointset/hip_l/hip_rotation_l/value	/jointset/knee_l/knee_angle_l/value	/jointset/ankle_l/ankle_angle_l/value	/jointset/subtalar_l/subtalar_angle_l/value	/jointset/mtp_l/mtp_angle_l/value	/jointset/back/lumbar_extension/value	/jointset/back/lumbar_bending/value	/jointset/back/lumbar_rotation/value	/jointset/acromial_r/arm_flex_r/value	/jointset/acromial_r/arm_add_r/value	/jointset/acromial_r/arm_rot_r/value	/jointset/elbow_r/elbow_flex_r/value	/jointset/radioulnar_r/pro_sup_r/value	/jointset/radius_hand_r/wrist_flex_r/value	/jointset/radius_hand_r/wrist_dev_r/value	/jointset/acromial_l/arm_flex_l/value	/jointset/acromial_l/arm_add_l/value	/jointset/acromial_l/arm_rot_l/value	/jointset/elbow_l/elbow_flex_l/value	/jointset/radioulnar_l/pro_sup_l/value	/jointset/radius_hand_l/wrist_flex_l/value	/jointset/radius_hand_l/wrist_dev_l/value	
          0.10871127	         -9.01510967	          4.20965555	        -18.80368929	          0.63887524	          0.96015799	          0.30553080	          7.61104363	         -7.08239903	          9.46713817	        -27.94421971	         12.25114993	         -6.93686202	         13.06143680	         64.16033122	         -9.75279065	          0.36764369	       -132.06106883	         -1.21041059	        -23.43027577	         11.22533043	        -10.63062032	          0.24270981	         10.20927547	         61.75234631	        -11.48872557	        -11.83001364	        124.74097448	         73.58141179	        -30.83168651	          7.27137112	        -50.13146157	         -2.34887833	         -2.12271526	         91.45107737	         54.48196081	        -10.48565377	          9.11126625	
          0.11019132	         -8.99318271	          4.44967997	        -18.57381759	          0.65704838	          0.95980962	          0.30509093	          7.02450841	         -7.67773924	          9.12391062	        -28.59368029	         11.37473594	         -7.17087965	         12.24324417	         65.24862634	         -9.35029453	          0.60610623	       -131.75770957	         -1.24473835	        -23.42954536	         11.88805010	        -10.47596667	          0.00735995	         10.07670903	         63.20668859	        -10.94074290	        -11.16224808	        125.13487627	         72.95172640	        -30.92506042	          7.39871431	        -51.70514435	         -1.92987592	         -2.47723710	         92.42152970	         53.97318935	        -10.30403056	          9.06772231	
          0.11019132	         -8.99318271	          4.44967997	        -18.57381759	          0.65704838	          0.95980962	          0.30509093	          7.02450841	         -7.67773924	          9.12391062	        -28.59368029	         11.37473594	         -7.17087965	         12.24324417	         65.24862634	         -9.35029453	          0.60610623	       -131.75770957	         -1.24473835	        -23.42954536	         11.88805010	        -10.47596667	          0.00735995	         10.07670903	         63.20668859	        -10.94074290	        -11.16224808	        125.13487627	         72.95172640	        -30.92506042	          7.39871431	        -51.70514435	         -1.92987592	         -2.47723710	         92.42152970	         53.97318935	        -10.30403056	          9.06772231	
          0.11083766	         -8.98626604	          4.55160009	        -18.47011002	          0.66498195	          0.95966457	          0.30490240	          6.77525632	         -7.93127120	          8.96953408	        -28.88237776	         10.94907187	         -7.28423967	         11.89949284	         65.72076583	         -9.17758746	          0.70756990	       -131.61164333	         -1.26323986	        -23.42766798	         12.16070995	        -10.40746090	         -0.09256342	         10.01682544	         63.82982473	        -10.70097639	        -10.86312601	        125.27968664	         72.67680582	        -30.96211079	          7.45176362	        -52.38482055	         -1.75777367	         -2.62493313	         92.83085712	         53.76270558	        -10.22747834	          9.05017849	
          0.11287984	         -8.97158638	          4.85056195	        -18.14087699	          0.69002715	          0.95924282	          0.30433567	          6.01066617	         -8.69159855	          8.48503889	        -29.81172352	          9.45353697	         -7.70058017	         10.63207630	         67.19209342	         -8.66243618	          1.02264120	       -131.09744480	         -1.33561250	        -23.41095521	         12.94966922	        -10.19634164	         -0.38751694	          9.83330099	         65.75254948	         -9.94285747	         -9.90188927	        125.62453096	         71.80792184	        -31.06194111	          7.61243142	        -54.49487803	         -1.25686366	         -3.05345816	         94.05336143	         53.13132728	         -9.99788343	          8.99296122	
          0.11435989	         -8.96528586	          5.04036266	        -17.91002163	          0.70814930	          0.95897627	          0.30396250	          5.47757411	         -9.19772464	          8.15153968	        -30.50017686	          8.22860174	         -8.05945995	          9.57251876	         68.23366393	         -8.32933693	          1.24729310	       -130.67548103	         -1.40177507	        -23.38654526	         13.44929420	        -10.05357066	         -0.57813780	          9.71549562	         67.10274003	         -9.39459418	         -9.20139437	        125.76448264	         71.17812440	        -31.11813466	          7.72134952	        -55.98285936	         -0.93377699	         -3.32182058	         94.86207606	         52.70535764	         -9.84313258	          8.94943582	
          0.11435989	         -8.96528586	          5.04036266	        -17.91002163	          0.70814930	          0.95897627	          0.30396250	          5.47757411	         -9.19772464	          8.15153968	        -30.50017686	          8.22860174	         -8.05945995	          9.57251876	         68.23366393	         -8.32933693	          1.24729310	       -130.67548103	         -1.40177507	        -23.38654526	         13.44929420	        -10.05357066	         -0.57813780	          9.71549562	         67.10274003	         -9.39459418	         -9.20139437	        125.76448264	         71.17812440	        -31.11813466	          7.72134952	        -55.98285936	         -0.93377699	         -3.32182058	         94.86207606	         52.70535764	         -9.84313258	          8.94943582	
          0.11500623	         -8.96319434	          5.11518027	        -17.81358042	          0.71605331	          0.95887100	          0.30381194	          5.25044051	         -9.40560956	          8.01417617	        -30.80469567	          7.65757577	         -8.23110918	          9.04261658	         68.68081577	         -8.19719128	          1.34463358	       -130.47836365	         -1.43438222	        -23.37218802	         13.64677873	         -9.99497193	         -0.65465237	          9.67049049	         67.68100327	         -9.15583740	         -8.89758635	        125.79584397	         70.90332734	        -31.13843509	          7.76644251	        -56.62034521	         -0.80302301	         -3.42641267	         95.19230568	         52.52759728	         -9.77861828	          8.93002916	
